<svg width="20" height="21" viewBox="0 0 20 21" fill="none" xmlns="http://www.w3.org/2000/svg">
<path d="M13 10C13.5523 10 14 9.55229 14 9C14 8.44771 13.5523 8 13 8C12.4477 8 12 8.44771 12 9C12 9.55229 12.4477 10 13 10Z" fill="#EAE6DF"/>
<path d="M8 9C8 9.55229 7.55228 10 7 10C6.44771 10 6 9.55229 6 9C6 8.44771 6.44771 8 7 8C7.55228 8 8 8.44771 8 9Z" fill="#EAE6DF"/>
<path fill-rule="evenodd" clip-rule="evenodd" d="M6.25 4.27567V4C6.25 1.92893 7.92893 0.25 10 0.25C12.0711 0.25 13.75 1.92893 13.75 4V4.27567C14.4084 4.29605 14.9947 4.33261 15.5149 4.39818C16.7162 4.54961 17.6886 4.8682 18.4397 5.6018C18.6903 5.84656 18.9131 6.1183 19.1039 6.41205C19.676 7.29247 19.7977 8.30842 19.7106 9.51604C19.6254 10.6979 19.3286 12.1818 18.952 14.0648L18.9328 14.1604C18.6715 15.4673 18.4635 16.5074 18.2061 17.3256C17.941 18.1683 17.6025 18.8497 17.0361 19.4017C16.8414 19.5915 16.6306 19.7643 16.4063 19.918C15.754 20.3651 15.0194 20.5634 14.1411 20.6581C13.2883 20.75 12.2276 20.75 10.8948 20.75H9.10528C7.77249 20.75 6.71181 20.75 5.85904 20.6581C4.98068 20.5634 4.24614 20.3651 3.59385 19.918C3.3695 19.7643 3.15877 19.5915 2.96399 19.4017C2.39766 18.8497 2.05914 18.1683 1.79405 17.3256C1.53667 16.5074 1.32867 15.4673 1.06729 14.1604L1.04822 14.065C0.671577 12.1819 0.374781 10.698 0.289538 9.51604C0.202441 8.30842 0.324151 7.29247 0.896189 6.41205C1.08705 6.1183 1.30982 5.84656 1.56044 5.6018C2.31157 4.8682 3.28392 4.54961 4.48518 4.39818C5.00535 4.33261 5.59162 4.29605 6.25 4.27567ZM7.75 4C7.75 2.75736 8.75736 1.75 10 1.75C11.2426 1.75 12.25 2.75736 12.25 4V4.2522C11.8258 4.24999 11.378 4.25 10.9055 4.25H9.09462C8.62211 4.25 8.17425 4.24999 7.75 4.2522V4ZM2.60849 6.67491C3.02293 6.27015 3.61646 6.01956 4.67278 5.88641C5.74368 5.75141 7.1623 5.75 9.14859 5.75H10.8515C12.8378 5.75 14.2564 5.75141 15.3273 5.88641C16.3837 6.01956 16.9772 6.27015 17.3916 6.67491C17.5631 6.84238 17.7155 7.02831 17.8461 7.2293C18.1617 7.71507 18.2911 8.34622 18.2145 9.40814C18.1368 10.4847 17.86 11.8761 17.4705 13.8238C17.1987 15.1827 17.0055 16.1434 16.7752 16.8755C16.5498 17.5919 16.3103 18.0145 15.9892 18.3275C15.8559 18.4573 15.7118 18.5755 15.5582 18.6808C15.1884 18.9343 14.7271 19.0863 13.9803 19.1667C13.2173 19.249 12.2374 19.25 10.8515 19.25H9.14859C7.76271 19.25 6.78285 19.249 6.01978 19.1667C5.27307 19.0863 4.81176 18.9343 4.44188 18.6808C4.28838 18.5755 4.1442 18.4573 4.01093 18.3275C3.68979 18.0145 3.45028 17.5919 3.22492 16.8755C2.99463 16.1434 2.80147 15.1828 2.52967 13.8238C2.14013 11.8761 1.8633 10.4847 1.78565 9.40814C1.70906 8.34622 1.83838 7.71507 2.15401 7.2293C2.2846 7.02831 2.43702 6.84238 2.60849 6.67491Z" fill="#EAE6DF"/>
</svg>
